<svg xmlns="http://www.w3.org/2000/svg" width="34" height="32" viewBox="0 0 34 32" fill="none"><circle cx="17.8461" cy="16.5026" r="15.4401" fill="#DE4C27"></circle><circle cx="15.6404" cy="15.7672" r="15.4401" fill="#FFF4EA"></circle><path d="M10.6921 20.7393L10.9688 19.11L15.3552 15.5853C15.7312 15.2719 16.0497 14.99 16.3108 14.7393C16.5754 14.4887 16.7843 14.2432 16.9375 14.003C17.0941 13.7593 17.1968 13.4965 17.2456 13.2145C17.2978 12.9012 17.2717 12.6314 17.1672 12.4051C17.0663 12.1754 16.9026 11.9996 16.6764 11.8777C16.4536 11.7524 16.1855 11.6897 15.8722 11.6897C15.545 11.6897 15.2473 11.7559 14.9793 11.8882C14.7112 12.0204 14.4884 12.2102 14.3109 12.4573C14.1333 12.7045 14.0149 12.9987 13.9558 13.3398H11.8096C11.9279 12.6401 12.1908 12.0326 12.5981 11.5174C13.0054 11.0022 13.5171 10.6036 14.1333 10.3216C14.7495 10.0396 15.4318 9.89862 16.1803 9.89862C16.9462 9.89862 17.5902 10.0344 18.1124 10.3059C18.6381 10.574 19.0193 10.9465 19.256 11.4234C19.4927 11.9003 19.5588 12.4469 19.4544 13.0631C19.3848 13.4704 19.2368 13.8707 19.0105 14.2641C18.7843 14.654 18.4292 15.0892 17.9453 15.5696C17.4614 16.0465 16.7982 16.6192 15.9557 17.2876L14.1438 18.8176L14.1281 18.8907H18.6241L18.316 20.7393H10.6921Z" fill="#DE4C27"></path></svg>