<svg xmlns="http://www.w3.org/2000/svg" width="34" height="33" viewBox="0 0 34 33" fill="none"><circle cx="15.6404" cy="16.8219" r="15.4401" fill="#DE4C27"></circle><circle cx="17.8461" cy="16.0875" r="15.4401" fill="#FFF4EA"></circle><path d="M16.9449 21.2048C16.1442 21.2048 15.4549 21.0708 14.877 20.8027C14.2991 20.5347 13.8709 20.1622 13.5924 19.6852C13.3174 19.2083 13.2286 18.6583 13.3261 18.0351H15.5715C15.5367 18.2927 15.5767 18.5208 15.6916 18.7192C15.81 18.9176 15.9858 19.0708 16.219 19.1787C16.4557 19.2866 16.7342 19.3406 17.0545 19.3406C17.4131 19.3406 17.7438 19.2727 18.0467 19.1369C18.3495 19.0012 18.6002 18.8167 18.7986 18.5834C19.0005 18.3467 19.1241 18.0804 19.1694 17.7845C19.2146 17.5025 19.1763 17.2623 19.0545 17.0639C18.9327 16.8619 18.7377 16.707 18.4696 16.5991C18.2016 16.4912 17.8691 16.4372 17.4723 16.4372H16.4331L16.7099 14.7767H17.6498C17.9979 14.7767 18.3165 14.7123 18.6054 14.5835C18.8978 14.4546 19.1398 14.2754 19.3313 14.0456C19.5227 13.8158 19.6428 13.5495 19.6916 13.2467C19.7333 12.9995 19.7142 12.7836 19.6341 12.5991C19.5575 12.4112 19.4218 12.2667 19.2268 12.1657C19.0354 12.0613 18.7864 12.0091 18.4801 12.0091C18.1703 12.0091 17.8691 12.0648 17.5767 12.1762C17.2843 12.2841 17.0371 12.439 16.8352 12.6409C16.6333 12.8428 16.5097 13.0796 16.4644 13.3511H14.3078C14.4157 12.7349 14.6733 12.1918 15.0806 11.7219C15.4914 11.2519 16.0014 10.8846 16.6107 10.62C17.2234 10.352 17.8848 10.218 18.595 10.218C19.3504 10.218 19.9875 10.3642 20.5062 10.6566C21.0249 10.9455 21.4009 11.3285 21.6341 11.8054C21.8708 12.2789 21.9439 12.7941 21.8534 13.3511C21.7525 13.9638 21.4844 14.4494 21.0493 14.808C20.6176 15.1631 20.0797 15.3928 19.4357 15.4973V15.5756C20.1563 15.6731 20.6994 15.9603 21.0649 16.4372C21.4339 16.9142 21.5627 17.4938 21.4513 18.1761C21.3573 18.7679 21.1015 19.2919 20.6837 19.7479C20.266 20.2039 19.7351 20.5608 19.0911 20.8184C18.447 21.076 17.7316 21.2048 16.9449 21.2048Z" fill="#DE4C27"></path></svg>