<svg xmlns="http://www.w3.org/2000/svg" width="34" height="32" viewBox="0 0 34 32" fill="none"><circle cx="15.6404" cy="16.4616" r="15.4401" fill="#DE4C27"></circle><circle cx="17.8461" cy="15.7262" r="15.4401" fill="#FFF4EA"></circle><path d="M16.783 20.8435C16.0484 20.8435 15.4131 20.7077 14.877 20.4362C14.3444 20.1612 13.9492 19.7852 13.6916 19.3082C13.434 18.8313 13.3487 18.2865 13.4357 17.6738H15.6289C15.5872 18.0846 15.7055 18.4205 15.984 18.6816C16.2625 18.9392 16.6263 19.068 17.0754 19.068C17.4305 19.068 17.7577 18.9897 18.0571 18.8331C18.3565 18.6729 18.6072 18.4519 18.8091 18.1699C19.0145 17.8879 19.1468 17.5607 19.2059 17.1882C19.2686 16.8122 19.2442 16.4815 19.1328 16.196C19.0214 15.9105 18.8404 15.6877 18.5897 15.5276C18.3391 15.364 18.0327 15.2822 17.6707 15.2822C17.3539 15.2822 17.0388 15.3483 16.7255 15.4806C16.4122 15.6094 16.1546 15.7835 15.9527 16.0028L13.9997 15.6425L15.4462 10.0028H21.984L21.6811 11.8514H17.0127L16.2869 14.5302H16.3496C16.5828 14.2656 16.9031 14.0463 17.3104 13.8723C17.7177 13.6982 18.1563 13.6112 18.6263 13.6112C19.2703 13.6112 19.8186 13.7626 20.2712 14.0655C20.7272 14.3683 21.0562 14.7844 21.2581 15.3135C21.46 15.8427 21.5036 16.4484 21.3887 17.1307C21.2738 17.8513 21.004 18.4901 20.5793 19.0471C20.1546 19.6042 19.615 20.0428 18.9605 20.3631C18.306 20.6833 17.5802 20.8435 16.783 20.8435Z" fill="#DE4C27"></path></svg>