<svg xmlns="http://www.w3.org/2000/svg" width="34" height="33" viewBox="0 0 34 33" fill="none"><circle cx="17.8461" cy="16.7819" r="15.4401" fill="#DE4C27"></circle><circle cx="15.6404" cy="16.0465" r="15.4401" fill="#FFF4EA"></circle><path d="M14.8853 21.1648C14.3213 21.1648 13.7921 21.069 13.2978 20.8776C12.8069 20.6861 12.3892 20.3815 12.0446 19.9637C11.6999 19.5425 11.4649 18.989 11.3396 18.3032C11.2143 17.6174 11.2352 16.7801 11.4023 15.7914C11.5485 14.9072 11.7782 14.1187 12.0915 13.4259C12.4083 12.7297 12.7913 12.1413 13.2404 11.6609C13.6894 11.177 14.196 10.8098 14.7599 10.5591C15.3274 10.305 15.9349 10.1779 16.5824 10.1779C17.296 10.1779 17.9087 10.3154 18.4205 10.5904C18.9322 10.862 19.3221 11.2345 19.5902 11.7079C19.8582 12.1779 19.9783 12.7088 19.9505 13.3006H17.7677C17.7608 12.9177 17.6389 12.6252 17.4022 12.4233C17.169 12.2179 16.8539 12.1152 16.457 12.1152C15.7469 12.1152 15.1464 12.4233 14.6555 13.0395C14.1646 13.6557 13.8252 14.4947 13.6372 15.5565L13.7208 15.4364C13.9331 15.123 14.189 14.8585 14.4884 14.6426C14.7913 14.4268 15.1202 14.2632 15.4753 14.1518C15.8339 14.0404 16.2029 13.9847 16.5824 13.9847C17.2299 13.9847 17.7834 14.1396 18.2429 14.4494C18.7025 14.7558 19.0332 15.1787 19.2351 15.7183C19.4405 16.2579 19.4857 16.8706 19.3709 17.5564C19.2525 18.2631 18.9862 18.888 18.5719 19.4311C18.1576 19.9742 17.632 20.4006 16.9949 20.7105C16.3613 21.0168 15.6581 21.1682 14.8853 21.1648ZM14.9636 19.3893C15.3291 19.3893 15.672 19.3006 15.9923 19.123C16.3126 18.9455 16.5806 18.7053 16.7965 18.4024C17.0158 18.096 17.1533 17.7531 17.209 17.3737C17.2647 17.043 17.2403 16.7453 17.1359 16.4807C17.0349 16.2162 16.8696 16.0073 16.6398 15.8541C16.41 15.6975 16.1281 15.6191 15.7939 15.6191C15.5223 15.6191 15.2595 15.6713 15.0054 15.7758C14.7547 15.8802 14.5267 16.0247 14.3213 16.2092C14.1159 16.3937 13.9436 16.6078 13.8043 16.8515C13.6651 17.0917 13.5746 17.3493 13.5328 17.6243C13.4806 17.9585 13.5049 18.2597 13.6059 18.5277C13.7103 18.7923 13.8792 19.0029 14.1124 19.1596C14.3457 19.3127 14.6294 19.3893 14.9636 19.3893Z" fill="#DE4C27"></path></svg>