<svg xmlns="http://www.w3.org/2000/svg" width="33" height="33" viewBox="0 0 33 33" fill="none"><path d="M16.5 2.47852C13.5837 2.48196 10.7878 3.64199 8.72564 5.70414C6.66348 7.7663 5.50345 10.5622 5.50001 13.4785C5.49652 15.8617 6.27499 18.1803 7.71601 20.0785C7.71601 20.0785 8.01601 20.4735 8.06501 20.5305L16.5 30.4785L24.939 20.5255C24.983 20.4725 25.284 20.0785 25.284 20.0785L25.285 20.0755C26.7253 18.1781 27.5034 15.8606 27.5 13.4785C27.4966 10.5622 26.3365 7.7663 24.2744 5.70414C22.2122 3.64199 19.4163 2.48196 16.5 2.47852ZM16.5 17.4785C15.7089 17.4785 14.9355 17.2439 14.2777 16.8044C13.6199 16.3649 13.1072 15.7402 12.8045 15.0092C12.5017 14.2783 12.4225 13.4741 12.5769 12.6982C12.7312 11.9222 13.1122 11.2095 13.6716 10.6501C14.231 10.0907 14.9437 9.70971 15.7197 9.55537C16.4956 9.40103 17.2998 9.48025 18.0307 9.783C18.7616 10.0857 19.3864 10.5984 19.8259 11.2562C20.2654 11.914 20.5 12.6874 20.5 13.4785C20.4987 14.539 20.0768 15.5556 19.327 16.3055C18.5771 17.0553 17.5605 17.4772 16.5 17.4785Z" fill="#898989"></path></svg>