<svg xmlns="http://www.w3.org/2000/svg" width="246" height="31" viewBox="0 0 246 31" fill="none"><rect x="0.437744" y="0.599609" width="244.766" height="30.125" rx="15.0625" fill="url(#paint0_linear_9668_25600)"></rect><rect x="0.814307" y="0.976172" width="244.012" height="29.3719" rx="14.6859" stroke="url(#paint1_linear_9668_25600)" stroke-opacity="0.65" stroke-width="0.753125"></rect><g clip-path="url(#clip0_9668_25600)"><path d="M16.2609 12.0812C16.2118 11.9683 16.1033 11.8975 15.9855 11.8975C15.8683 11.8975 15.7599 11.9683 15.7107 12.0812L14.7108 14.3361L12.5462 15.3754C12.4377 15.4266 12.3698 15.5396 12.3698 15.6638C12.3698 15.7889 12.4377 15.8996 12.5462 15.9508L14.7108 16.9924L15.7086 19.2449C15.7577 19.3572 15.8662 19.4287 15.984 19.4287C16.1012 19.4287 16.2096 19.3572 16.2588 19.2449L17.2587 16.9901L19.4233 15.9485C19.5311 15.8973 19.5998 15.7843 19.5998 15.6623C19.5998 15.5396 19.5311 15.4266 19.4233 15.3754L17.2608 14.3361L16.2609 12.0812Z" fill="#DE4C27"></path><path opacity="0.4" d="M19.7362 11.3089L20.8005 10.8932L21.1996 9.78455C21.2314 9.69644 21.3123 9.6377 21.4027 9.6377C21.4931 9.6377 21.5741 9.69644 21.6059 9.78455L22.005 10.8932L23.0692 11.3089C23.1538 11.342 23.2102 11.4264 23.2102 11.5205C23.2102 11.6146 23.1538 11.699 23.0692 11.7321L22.005 12.1479L21.6059 13.2565C21.5741 13.3446 21.4931 13.4033 21.4027 13.4033C21.3123 13.4033 21.2314 13.3446 21.1996 13.2565L20.8005 12.1479L19.7362 11.7321C19.6516 11.699 19.5952 11.6146 19.5952 11.5205C19.5952 11.4264 19.6516 11.342 19.7362 11.3089Z" fill="#DE4C27"></path><path opacity="0.4" d="M21.0412 18.6742L19.7644 19.1735C19.6632 19.2135 19.5952 19.3144 19.5952 19.4273C19.5952 19.5403 19.6632 19.6412 19.7644 19.6811L21.0412 20.1805L21.5206 21.5105C21.5589 21.6159 21.6558 21.6867 21.7642 21.6867C21.8727 21.6867 21.9695 21.6159 22.0079 21.5105L22.4872 20.1805L23.764 19.6811C23.8653 19.6412 23.9332 19.5403 23.9332 19.4273C23.9332 19.3144 23.8653 19.2135 23.764 19.1735L22.4872 18.6742L22.0079 17.3442C21.9695 17.2388 21.8727 17.168 21.7642 17.168C21.6558 17.168 21.5589 17.2388 21.5206 17.3442L21.0412 18.6742Z" fill="#DE4C27"></path></g><path d="M37.0518 13.7274C37.0063 13.324 36.8188 13.0115 36.4893 12.7899C36.1597 12.5655 35.7449 12.4533 35.2449 12.4533C34.887 12.4533 34.5773 12.5101 34.316 12.6238C34.0546 12.7346 33.8515 12.888 33.7066 13.084C33.5645 13.2772 33.4935 13.4973 33.4935 13.7445C33.4935 13.9519 33.5418 14.1309 33.6384 14.2814C33.7378 14.432 33.8671 14.5584 34.0262 14.6607C34.1881 14.7601 34.3614 14.8439 34.5461 14.9121C34.7307 14.9775 34.9083 15.0314 35.0787 15.074L35.931 15.2956C36.2094 15.3638 36.4949 15.4561 36.7876 15.5726C37.0802 15.6891 37.3515 15.8425 37.6015 16.0328C37.8515 16.2232 38.0532 16.459 38.2066 16.7402C38.3628 17.0215 38.441 17.3581 38.441 17.7502C38.441 18.2445 38.3131 18.6834 38.0574 19.0669C37.8046 19.4505 37.4367 19.753 36.9537 19.9746C36.4736 20.1962 35.8927 20.307 35.2108 20.307C34.5574 20.307 33.9921 20.2033 33.5148 19.9959C33.0376 19.7885 32.664 19.4945 32.3941 19.1138C32.1242 18.7303 31.9751 18.2757 31.9466 17.7502H33.2677C33.2932 18.0655 33.3955 18.3283 33.5745 18.5385C33.7563 18.7459 33.9878 18.9007 34.2691 19.003C34.5532 19.1025 34.8643 19.1522 35.2023 19.1522C35.5745 19.1522 35.9055 19.0939 36.1952 18.9775C36.4878 18.8581 36.718 18.6934 36.8856 18.4831C37.0532 18.2701 37.137 18.0215 37.137 17.7374C37.137 17.4789 37.0631 17.2672 36.9154 17.1025C36.7705 16.9377 36.5731 16.8013 36.3231 16.6934C36.0759 16.5854 35.7961 16.4902 35.4836 16.4078L34.4523 16.1266C33.7535 15.9363 33.1995 15.6564 32.7904 15.2871C32.3841 14.9178 32.181 14.4292 32.181 13.8212C32.181 13.3184 32.3174 12.8794 32.5901 12.5044C32.8628 12.1294 33.2322 11.8382 33.6981 11.6309C34.164 11.4206 34.6895 11.3155 35.2748 11.3155C35.8657 11.3155 36.387 11.4192 36.8387 11.6266C37.2932 11.834 37.6512 12.1195 37.9126 12.4831C38.1739 12.8439 38.3103 13.2587 38.3216 13.7274H37.0518ZM44.0585 17.4476V13.6167H45.3369V20.1621H44.0841V19.0286H44.0159C43.8653 19.378 43.6238 19.6692 43.2915 19.9022C42.9619 20.1323 42.5514 20.2473 42.0599 20.2473C41.6395 20.2473 41.2673 20.155 40.9434 19.9703C40.6224 19.7828 40.3696 19.5059 40.1849 19.1394C40.0031 18.7729 39.9122 18.3198 39.9122 17.78V13.6167H41.1863V17.6266C41.1863 18.0726 41.3099 18.4277 41.5571 18.6919C41.8042 18.9561 42.1253 19.0882 42.5202 19.0882C42.7588 19.0882 42.996 19.0286 43.2318 18.9093C43.4704 18.79 43.6679 18.6096 43.8241 18.3681C43.9832 18.1266 44.0613 17.8198 44.0585 17.4476ZM47.1512 20.1621V11.4348H48.4253V14.6777H48.502C48.5759 14.5414 48.6824 14.3837 48.8216 14.2047C48.9608 14.0257 49.154 13.8695 49.4012 13.736C49.6483 13.5996 49.9751 13.5314 50.3813 13.5314C50.9097 13.5314 51.3813 13.665 51.7961 13.932C52.2108 14.199 52.5361 14.584 52.7719 15.0868C53.0106 15.5897 53.1299 16.1948 53.1299 16.9022C53.1299 17.6096 53.012 18.2161 52.7762 18.7218C52.5404 19.2246 52.2165 19.6124 51.8046 19.8851C51.3927 20.155 50.9225 20.29 50.3941 20.29C49.9964 20.29 49.6711 20.2232 49.4182 20.0897C49.1682 19.9561 48.9722 19.7999 48.8302 19.6209C48.6881 19.4419 48.5787 19.2828 48.502 19.1436H48.3955V20.1621H47.1512ZM48.3998 16.8894C48.3998 17.3496 48.4665 17.753 48.6001 18.0996C48.7336 18.4462 48.9268 18.7175 49.1796 18.9135C49.4324 19.1067 49.7421 19.2033 50.1086 19.2033C50.4893 19.2033 50.8074 19.1025 51.0631 18.9007C51.3188 18.6962 51.512 18.4192 51.6427 18.0698C51.7762 17.7203 51.843 17.3269 51.843 16.8894C51.843 16.4576 51.7776 16.0698 51.6469 15.726C51.5191 15.3823 51.3259 15.111 51.0674 14.9121C50.8117 14.7132 50.4921 14.6138 50.1086 14.6138C49.7393 14.6138 49.4268 14.709 49.1711 14.8993C48.9182 15.0897 48.7265 15.3553 48.5958 15.6962C48.4651 16.0371 48.3998 16.4348 48.3998 16.8894ZM59.4655 15.2147L58.3106 15.4192C58.2623 15.2715 58.1856 15.1309 58.0805 14.9973C57.9782 14.8638 57.839 14.7544 57.6629 14.6692C57.4868 14.584 57.2666 14.5414 57.0024 14.5414C56.6416 14.5414 56.3405 14.6223 56.099 14.7843C55.8575 14.9434 55.7368 15.1493 55.7368 15.4022C55.7368 15.6209 55.8177 15.7971 55.9797 15.9306C56.1416 16.0641 56.403 16.1735 56.7638 16.2587L57.8035 16.4973C58.4058 16.6365 58.8547 16.851 59.1501 17.1408C59.4456 17.4306 59.5933 17.807 59.5933 18.2701C59.5933 18.6621 59.4797 19.0115 59.2524 19.3184C59.028 19.6223 58.714 19.861 58.3106 20.0343C57.9101 20.2076 57.4456 20.2942 56.9172 20.2942C56.1842 20.2942 55.5862 20.138 55.1231 19.8255C54.6601 19.5101 54.376 19.0627 54.2709 18.4831L55.5024 18.2956C55.5791 18.6167 55.7368 18.8596 55.9754 19.0243C56.214 19.1863 56.5251 19.2672 56.9086 19.2672C57.3263 19.2672 57.6601 19.1806 57.9101 19.0073C58.1601 18.8311 58.2851 18.6167 58.2851 18.3638C58.2851 18.1593 58.2084 17.9874 58.055 17.8482C57.9044 17.709 57.6729 17.6039 57.3604 17.5328L56.2524 17.29C55.6416 17.1507 55.1899 16.9292 54.8973 16.6252C54.6075 16.3212 54.4626 15.9363 54.4626 15.4703C54.4626 15.084 54.5706 14.7459 54.7865 14.4561C55.0024 14.1664 55.3007 13.9405 55.6814 13.7786C56.0621 13.6138 56.4981 13.5314 56.9896 13.5314C57.697 13.5314 58.2538 13.6848 58.6601 13.9917C59.0663 14.2956 59.3348 14.7033 59.4655 15.2147ZM63.7513 20.2942C63.1178 20.2942 62.5724 20.1507 62.115 19.8638C61.6604 19.574 61.311 19.1749 61.0667 18.6664C60.8224 18.1578 60.7002 17.5755 60.7002 16.9192C60.7002 16.2544 60.8252 15.6678 61.0752 15.1593C61.3252 14.6479 61.6775 14.2488 62.132 13.9618C62.5866 13.6749 63.1221 13.5314 63.7385 13.5314C64.2357 13.5314 64.6789 13.6238 65.0681 13.8084C65.4573 13.9902 65.7712 14.2459 66.0099 14.5755C66.2513 14.905 66.3948 15.29 66.4403 15.7303H65.2002C65.132 15.4235 64.9758 15.1593 64.7314 14.9377C64.49 14.7161 64.1661 14.6053 63.7599 14.6053C63.4047 14.6053 63.0937 14.699 62.8266 14.8865C62.5624 15.0712 62.3564 15.3354 62.2087 15.6792C62.061 16.0201 61.9871 16.4235 61.9871 16.8894C61.9871 17.3667 62.0596 17.7786 62.2045 18.1252C62.3493 18.4718 62.5539 18.7402 62.8181 18.9306C63.0851 19.1209 63.3991 19.2161 63.7599 19.2161C64.0013 19.2161 64.2201 19.1721 64.4161 19.084C64.615 18.9931 64.7812 18.8638 64.9147 18.6962C65.051 18.5286 65.1462 18.3269 65.2002 18.0911H66.4403C66.3948 18.5144 66.257 18.8922 66.0269 19.2246C65.7968 19.557 65.4885 19.8184 65.1022 20.0087C64.7187 20.199 64.2684 20.2942 63.7513 20.2942ZM67.8028 20.1621V13.6167H69.0344V14.6564H69.1025C69.2219 14.3042 69.4321 14.0272 69.7332 13.8255C70.0372 13.6209 70.3809 13.5186 70.7645 13.5186C70.844 13.5186 70.9378 13.5215 71.0457 13.5272C71.1565 13.5328 71.2432 13.5399 71.3057 13.5485V14.7672C71.2545 14.753 71.1636 14.7374 71.0329 14.7203C70.9023 14.7005 70.7716 14.6905 70.6409 14.6905C70.3398 14.6905 70.0713 14.7544 69.8355 14.8823C69.6025 15.0073 69.4179 15.182 69.2815 15.4064C69.1452 15.628 69.077 15.8809 69.077 16.165V20.1621H67.8028ZM72.4083 20.1621V13.6167H73.6824V20.1621H72.4083ZM73.0518 12.6067C72.8302 12.6067 72.6398 12.5328 72.4807 12.3851C72.3245 12.2346 72.2464 12.0556 72.2464 11.8482C72.2464 11.638 72.3245 11.459 72.4807 11.3113C72.6398 11.1607 72.8302 11.0854 73.0518 11.0854C73.2733 11.0854 73.4623 11.1607 73.6185 11.3113C73.7776 11.459 73.8572 11.638 73.8572 11.8482C73.8572 12.0556 73.7776 12.2346 73.6185 12.3851C73.4623 12.5328 73.2733 12.6067 73.0518 12.6067ZM75.4988 20.1621V11.4348H76.773V14.6777H76.8497C76.9236 14.5414 77.0301 14.3837 77.1693 14.2047C77.3085 14.0257 77.5017 13.8695 77.7488 13.736C77.996 13.5996 78.3227 13.5314 78.729 13.5314C79.2574 13.5314 79.729 13.665 80.1437 13.932C80.5585 14.199 80.8838 14.584 81.1196 15.0868C81.3582 15.5897 81.4775 16.1948 81.4775 16.9022C81.4775 17.6096 81.3596 18.2161 81.1238 18.7218C80.8881 19.2246 80.5642 19.6124 80.1523 19.8851C79.7403 20.155 79.2702 20.29 78.7417 20.29C78.344 20.29 78.0187 20.2232 77.7659 20.0897C77.5159 19.9561 77.3199 19.7999 77.1778 19.6209C77.0358 19.4419 76.9264 19.2828 76.8497 19.1436H76.7432V20.1621H75.4988ZM76.7474 16.8894C76.7474 17.3496 76.8142 17.753 76.9477 18.0996C77.0812 18.4462 77.2744 18.7175 77.5273 18.9135C77.7801 19.1067 78.0898 19.2033 78.4562 19.2033C78.8369 19.2033 79.1551 19.1025 79.4108 18.9007C79.6665 18.6962 79.8596 18.4192 79.9903 18.0698C80.1238 17.7203 80.1906 17.3269 80.1906 16.8894C80.1906 16.4576 80.1253 16.0698 79.9946 15.726C79.8667 15.3823 79.6736 15.111 79.415 14.9121C79.1594 14.7132 78.8398 14.6138 78.4562 14.6138C78.0869 14.6138 77.7744 14.709 77.5187 14.8993C77.2659 15.0897 77.0741 15.3553 76.9434 15.6962C76.8128 16.0371 76.7474 16.4348 76.7474 16.8894ZM85.7293 20.2942C85.0844 20.2942 84.529 20.1564 84.0631 19.8809C83.6001 19.6025 83.2421 19.2118 82.9893 18.709C82.7393 18.2033 82.6143 17.611 82.6143 16.932C82.6143 16.2615 82.7393 15.6706 82.9893 15.1593C83.2421 14.6479 83.5944 14.2488 84.0461 13.9618C84.5006 13.6749 85.0319 13.5314 85.6398 13.5314C86.0091 13.5314 86.3671 13.5925 86.7137 13.7147C87.0603 13.8368 87.3714 14.0286 87.6469 14.29C87.9225 14.5513 88.1398 14.8908 88.2989 15.3084C88.458 15.7232 88.5376 16.2275 88.5376 16.8212V17.2729H83.3344V16.3184H87.289C87.289 15.9831 87.2208 15.6863 87.0844 15.4277C86.9481 15.1664 86.7563 14.9604 86.5091 14.8098C86.2648 14.6593 85.9779 14.584 85.6483 14.584C85.2904 14.584 84.9779 14.6721 84.7108 14.8482C84.4466 15.0215 84.2421 15.2488 84.0972 15.53C83.9552 15.8084 83.8841 16.111 83.8841 16.4377V17.1834C83.8841 17.6209 83.9608 17.9931 84.1143 18.2999C84.2705 18.6067 84.4878 18.8411 84.7662 19.003C85.0447 19.1621 85.3699 19.2417 85.7421 19.2417C85.9836 19.2417 86.2037 19.2076 86.4026 19.1394C86.6015 19.0684 86.7733 18.9632 86.9182 18.824C87.0631 18.6848 87.1739 18.513 87.2506 18.3084L88.4566 18.5257C88.36 18.8809 88.1867 19.1919 87.9367 19.459C87.6895 19.7232 87.3785 19.9292 87.0035 20.0769C86.6313 20.2218 86.2066 20.2942 85.7293 20.2942ZM100.273 11.4348V20.1621H99.0631L94.627 13.7615H94.5461V20.1621H93.2293V11.4348H94.4481L98.8884 17.8439H98.9694V11.4348H100.273ZM104.849 20.2942C104.235 20.2942 103.7 20.1536 103.242 19.8723C102.785 19.5911 102.43 19.1976 102.177 18.6919C101.924 18.1863 101.798 17.5953 101.798 16.9192C101.798 16.2402 101.924 15.6465 102.177 15.138C102.43 14.6294 102.785 14.2346 103.242 13.9533C103.7 13.6721 104.235 13.5314 104.849 13.5314C105.463 13.5314 105.998 13.6721 106.456 13.9533C106.913 14.2346 107.268 14.6294 107.521 15.138C107.774 15.6465 107.9 16.2402 107.9 16.9192C107.9 17.5953 107.774 18.1863 107.521 18.6919C107.268 19.1976 106.913 19.5911 106.456 19.8723C105.998 20.1536 105.463 20.2942 104.849 20.2942ZM104.853 19.2246C105.251 19.2246 105.581 19.1195 105.842 18.9093C106.103 18.699 106.296 18.4192 106.421 18.0698C106.549 17.7203 106.613 17.3354 106.613 16.915C106.613 16.4973 106.549 16.1138 106.421 15.7644C106.296 15.4121 106.103 15.1294 105.842 14.9164C105.581 14.7033 105.251 14.5968 104.853 14.5968C104.453 14.5968 104.12 14.7033 103.856 14.9164C103.595 15.1294 103.4 15.4121 103.272 15.7644C103.147 16.1138 103.085 16.4973 103.085 16.915C103.085 17.3354 103.147 17.7203 103.272 18.0698C103.4 18.4192 103.595 18.699 103.856 18.9093C104.12 19.1195 104.453 19.2246 104.853 19.2246ZM110.542 20.1621L108.616 13.6167H109.933L111.215 18.4235H111.279L112.566 13.6167H113.883L115.161 18.4022H115.225L116.5 13.6167H117.816L115.894 20.1621H114.595L113.265 15.4363H113.167L111.838 20.1621H110.542ZM125.316 13.6167V14.6394H121.617V13.6167H125.316ZM122.632 20.1621V12.8581C122.632 12.449 122.721 12.1096 122.9 11.8397C123.079 11.5669 123.316 11.3638 123.612 11.2303C123.907 11.0939 124.228 11.0257 124.575 11.0257C124.831 11.0257 125.049 11.0471 125.231 11.0897C125.413 11.1294 125.548 11.1664 125.636 11.2005L125.338 12.2317C125.278 12.2147 125.201 12.1948 125.108 12.1721C125.014 12.1465 124.9 12.1337 124.767 12.1337C124.457 12.1337 124.235 12.2104 124.102 12.3638C123.971 12.5172 123.906 12.7388 123.906 13.0286V20.1621H122.632ZM129.13 20.2942C128.517 20.2942 127.981 20.1536 127.524 19.8723C127.066 19.5911 126.711 19.1976 126.458 18.6919C126.206 18.1863 126.079 17.5953 126.079 16.9192C126.079 16.2402 126.206 15.6465 126.458 15.138C126.711 14.6294 127.066 14.2346 127.524 13.9533C127.981 13.6721 128.517 13.5314 129.13 13.5314C129.744 13.5314 130.279 13.6721 130.737 13.9533C131.194 14.2346 131.549 14.6294 131.802 15.138C132.055 15.6465 132.181 16.2402 132.181 16.9192C132.181 17.5953 132.055 18.1863 131.802 18.6919C131.549 19.1976 131.194 19.5911 130.737 19.8723C130.279 20.1536 129.744 20.2942 129.13 20.2942ZM129.134 19.2246C129.532 19.2246 129.862 19.1195 130.123 18.9093C130.384 18.699 130.578 18.4192 130.703 18.0698C130.831 17.7203 130.894 17.3354 130.894 16.915C130.894 16.4973 130.831 16.1138 130.703 15.7644C130.578 15.4121 130.384 15.1294 130.123 14.9164C129.862 14.7033 129.532 14.5968 129.134 14.5968C128.734 14.5968 128.402 14.7033 128.137 14.9164C127.876 15.1294 127.681 15.4121 127.554 15.7644C127.429 16.1138 127.366 16.4973 127.366 16.915C127.366 17.3354 127.429 17.7203 127.554 18.0698C127.681 18.4192 127.876 18.699 128.137 18.9093C128.402 19.1195 128.734 19.2246 129.134 19.2246ZM133.604 20.1621V13.6167H134.835V14.6564H134.903C135.023 14.3042 135.233 14.0272 135.534 13.8255C135.838 13.6209 136.182 13.5186 136.565 13.5186C136.645 13.5186 136.739 13.5215 136.847 13.5272C136.957 13.5328 137.044 13.5399 137.106 13.5485V14.7672C137.055 14.753 136.964 14.7374 136.834 14.7203C136.703 14.7005 136.572 14.6905 136.442 14.6905C136.141 14.6905 135.872 14.7544 135.636 14.8823C135.403 15.0073 135.219 15.182 135.082 15.4064C134.946 15.628 134.878 15.8809 134.878 16.165V20.1621H133.604ZM148.531 11.4348V20.1621H147.321L142.885 13.7615H142.804V20.1621H141.487V11.4348H142.706L147.146 17.8439H147.227V11.4348H148.531ZM153.213 20.2814C152.679 20.2814 152.199 20.1792 151.773 19.9746C151.35 19.7672 151.012 19.4831 150.759 19.1223C150.506 18.7615 150.371 18.3496 150.354 17.8865H151.632C151.664 18.2615 151.83 18.5698 152.131 18.8113C152.432 19.0527 152.793 19.1735 153.213 19.1735C153.549 19.1735 153.845 19.0968 154.104 18.9434C154.365 18.7871 154.57 18.5726 154.718 18.2999C154.868 18.0272 154.943 17.7161 154.943 17.3667C154.943 17.0115 154.867 16.6948 154.713 16.4164C154.56 16.138 154.348 15.9192 154.078 15.7601C153.811 15.601 153.505 15.5201 153.158 15.5172C152.894 15.5172 152.628 15.5627 152.361 15.6536C152.094 15.7445 151.878 15.8638 151.713 16.0115L150.507 15.8326L150.997 11.4348H155.796V12.5641H152.093L151.816 15.0059H151.867C152.037 14.8411 152.263 14.7033 152.544 14.5925C152.828 14.4817 153.132 14.4263 153.456 14.4263C153.987 14.4263 154.46 14.5527 154.875 14.8056C155.293 15.0584 155.621 15.4036 155.86 15.8411C156.101 16.2757 156.22 16.7757 156.218 17.3411C156.22 17.9064 156.093 18.4107 155.834 18.8539C155.578 19.2971 155.223 19.6465 154.769 19.9022C154.317 20.155 153.799 20.2814 153.213 20.2814ZM160.812 20.307C160.139 20.3042 159.564 20.1266 159.087 19.7743C158.609 19.4221 158.244 18.9093 157.991 18.236C157.739 17.5627 157.612 16.7516 157.612 15.8027C157.612 14.8567 157.739 14.0485 157.991 13.378C158.247 12.7076 158.614 12.1962 159.091 11.8439C159.571 11.4917 160.145 11.3155 160.812 11.3155C161.48 11.3155 162.052 11.4931 162.53 11.8482C163.007 12.2005 163.372 12.7118 163.625 13.3823C163.881 14.0499 164.008 14.8567 164.008 15.8027C164.008 16.7544 163.882 17.5669 163.629 18.2402C163.376 18.9107 163.011 19.4235 162.534 19.7786C162.057 20.1309 161.483 20.307 160.812 20.307ZM160.812 19.1692C161.403 19.1692 161.865 18.8809 162.197 18.3042C162.533 17.7275 162.7 16.8936 162.7 15.8027C162.7 15.0783 162.623 14.4661 162.47 13.9661C162.32 13.4632 162.102 13.0826 161.818 12.824C161.537 12.5627 161.202 12.432 160.812 12.432C160.224 12.432 159.763 12.7218 159.427 13.3013C159.092 13.8809 158.923 14.7147 158.92 15.8027C158.92 16.53 158.996 17.1451 159.146 17.6479C159.3 18.1479 159.517 18.5272 159.798 18.7857C160.079 19.0414 160.418 19.1692 160.812 19.1692ZM166.878 18.9689L166.815 19.4334C166.772 19.7743 166.699 20.1294 166.597 20.4988C166.498 20.8709 166.394 21.2161 166.286 21.5343C166.181 21.8525 166.094 22.1053 166.026 22.2928H165.123C165.16 22.1167 165.211 21.878 165.276 21.5769C165.342 21.2786 165.405 20.9448 165.468 20.5755C165.53 20.2061 165.577 19.8297 165.609 19.4462L165.651 18.9689H166.878ZM171.383 20.307C170.709 20.3042 170.134 20.1266 169.657 19.7743C169.18 19.4221 168.815 18.9093 168.562 18.236C168.309 17.5627 168.182 16.7516 168.182 15.8027C168.182 14.8567 168.309 14.0485 168.562 13.378C168.817 12.7076 169.184 12.1962 169.661 11.8439C170.141 11.4917 170.715 11.3155 171.383 11.3155C172.05 11.3155 172.623 11.4931 173.1 11.8482C173.577 12.2005 173.942 12.7118 174.195 13.3823C174.451 14.0499 174.579 14.8567 174.579 15.8027C174.579 16.7544 174.452 17.5669 174.199 18.2402C173.947 18.9107 173.582 19.4235 173.104 19.7786C172.627 20.1309 172.053 20.307 171.383 20.307ZM171.383 19.1692C171.974 19.1692 172.435 18.8809 172.768 18.3042C173.103 17.7275 173.271 16.8936 173.271 15.8027C173.271 15.0783 173.194 14.4661 173.04 13.9661C172.89 13.4632 172.672 13.0826 172.388 12.824C172.107 12.5627 171.772 12.432 171.383 12.432C170.795 12.432 170.333 12.7218 169.998 13.3013C169.663 13.8809 169.494 14.7147 169.491 15.8027C169.491 16.53 169.566 17.1451 169.717 17.6479C169.87 18.1479 170.087 18.5272 170.369 18.7857C170.65 19.0414 170.988 19.1692 171.383 19.1692ZM179.129 20.307C178.456 20.3042 177.88 20.1266 177.403 19.7743C176.926 19.4221 176.561 18.9093 176.308 18.236C176.055 17.5627 175.929 16.7516 175.929 15.8027C175.929 14.8567 176.055 14.0485 176.308 13.378C176.563 12.7076 176.93 12.1962 177.407 11.8439C177.887 11.4917 178.461 11.3155 179.129 11.3155C179.796 11.3155 180.369 11.4931 180.846 11.8482C181.323 12.2005 181.688 12.7118 181.941 13.3823C182.197 14.0499 182.325 14.8567 182.325 15.8027C182.325 16.7544 182.198 17.5669 181.946 18.2402C181.693 18.9107 181.328 19.4235 180.85 19.7786C180.373 20.1309 179.799 20.307 179.129 20.307ZM179.129 19.1692C179.72 19.1692 180.181 18.8809 180.514 18.3042C180.849 17.7275 181.017 16.8936 181.017 15.8027C181.017 15.0783 180.94 14.4661 180.786 13.9661C180.636 13.4632 180.419 13.0826 180.134 12.824C179.853 12.5627 179.518 12.432 179.129 12.432C178.541 12.432 178.079 12.7218 177.744 13.3013C177.409 13.8809 177.24 14.7147 177.237 15.8027C177.237 16.53 177.312 17.1451 177.463 17.6479C177.616 18.1479 177.833 18.5272 178.115 18.7857C178.396 19.0414 178.734 19.1692 179.129 19.1692ZM186.875 20.307C186.202 20.3042 185.626 20.1266 185.149 19.7743C184.672 19.4221 184.307 18.9093 184.054 18.236C183.801 17.5627 183.675 16.7516 183.675 15.8027C183.675 14.8567 183.801 14.0485 184.054 13.378C184.31 12.7076 184.676 12.1962 185.153 11.8439C185.633 11.4917 186.207 11.3155 186.875 11.3155C187.543 11.3155 188.115 11.4931 188.592 11.8482C189.07 12.2005 189.435 12.7118 189.687 13.3823C189.943 14.0499 190.071 14.8567 190.071 15.8027C190.071 16.7544 189.945 17.5669 189.692 18.2402C189.439 18.9107 189.074 19.4235 188.597 19.7786C188.119 20.1309 187.545 20.307 186.875 20.307ZM186.875 19.1692C187.466 19.1692 187.927 18.8809 188.26 18.3042C188.595 17.7275 188.763 16.8936 188.763 15.8027C188.763 15.0783 188.686 14.4661 188.533 13.9661C188.382 13.4632 188.165 13.0826 187.881 12.824C187.599 12.5627 187.264 12.432 186.875 12.432C186.287 12.432 185.825 12.7218 185.49 13.3013C185.155 13.8809 184.986 14.7147 184.983 15.8027C184.983 16.53 185.058 17.1451 185.209 17.6479C185.362 18.1479 185.579 18.5272 185.861 18.7857C186.142 19.0414 186.48 19.1692 186.875 19.1692ZM194.924 11.0257L192.111 21.4746H190.973L193.786 11.0257H194.924ZM196.811 22.6167C196.621 22.6167 196.448 22.601 196.291 22.5698C196.135 22.5414 196.019 22.5101 195.942 22.476L196.249 21.432C196.482 21.4945 196.689 21.5215 196.871 21.513C197.053 21.5044 197.213 21.4363 197.353 21.3084C197.495 21.1806 197.62 20.9718 197.728 20.682L197.885 20.2473L195.49 13.6167H196.854L198.512 18.6962H198.58L200.237 13.6167H201.605L198.908 21.0357C198.783 21.3766 198.624 21.665 198.431 21.9007C198.237 22.1394 198.007 22.3184 197.74 22.4377C197.473 22.557 197.164 22.6167 196.811 22.6167ZM205.401 20.2942C204.756 20.2942 204.201 20.1564 203.735 19.8809C203.272 19.6025 202.914 19.2118 202.661 18.709C202.411 18.2033 202.286 17.611 202.286 16.932C202.286 16.2615 202.411 15.6706 202.661 15.1593C202.914 14.6479 203.266 14.2488 203.718 13.9618C204.172 13.6749 204.704 13.5314 205.312 13.5314C205.681 13.5314 206.039 13.5925 206.386 13.7147C206.732 13.8368 207.043 14.0286 207.319 14.29C207.594 14.5513 207.812 14.8908 207.971 15.3084C208.13 15.7232 208.209 16.2275 208.209 16.8212V17.2729H203.006V16.3184H206.961C206.961 15.9831 206.893 15.6863 206.756 15.4277C206.62 15.1664 206.428 14.9604 206.181 14.8098C205.937 14.6593 205.65 14.584 205.32 14.584C204.962 14.584 204.65 14.6721 204.383 14.8482C204.119 15.0215 203.914 15.2488 203.769 15.53C203.627 15.8084 203.556 16.111 203.556 16.4377V17.1834C203.556 17.6209 203.633 17.9931 203.786 18.2999C203.942 18.6067 204.16 18.8411 204.438 19.003C204.717 19.1621 205.042 19.2417 205.414 19.2417C205.655 19.2417 205.876 19.2076 206.074 19.1394C206.273 19.0684 206.445 18.9632 206.59 18.824C206.735 18.6848 206.846 18.513 206.922 18.3084L208.128 18.5257C208.032 18.8809 207.859 19.1919 207.609 19.459C207.361 19.7232 207.05 19.9292 206.675 20.0769C206.303 20.2218 205.878 20.2942 205.401 20.2942ZM211.528 20.307C211.113 20.307 210.738 20.2303 210.403 20.0769C210.068 19.9206 209.802 19.6948 209.606 19.3993C209.413 19.1039 209.316 18.7417 209.316 18.3127C209.316 17.9434 209.387 17.6394 209.529 17.4007C209.671 17.1621 209.863 16.9732 210.105 16.834C210.346 16.6948 210.616 16.5897 210.914 16.5186C211.213 16.4476 211.517 16.3936 211.826 16.3567C212.218 16.3113 212.536 16.2743 212.781 16.2459C213.025 16.2147 213.203 16.165 213.313 16.0968C213.424 16.0286 213.48 15.9178 213.48 15.7644V15.7346C213.48 15.3624 213.375 15.074 213.164 14.8695C212.957 14.665 212.647 14.5627 212.235 14.5627C211.806 14.5627 211.468 14.6578 211.221 14.8482C210.977 15.0357 210.808 15.2445 210.714 15.4746L209.517 15.2019C209.659 14.8042 209.866 14.4831 210.139 14.2388C210.414 13.9917 210.731 13.8127 211.089 13.7019C211.447 13.5882 211.823 13.5314 212.218 13.5314C212.48 13.5314 212.757 13.5627 213.049 13.6252C213.345 13.6848 213.62 13.7956 213.876 13.9576C214.134 14.1195 214.346 14.351 214.511 14.6522C214.676 14.9505 214.758 15.3382 214.758 15.8155V20.1621H213.514V19.2672H213.463C213.38 19.432 213.257 19.5939 213.092 19.753C212.927 19.9121 212.715 20.0442 212.457 20.1493C212.198 20.2544 211.889 20.307 211.528 20.307ZM211.805 19.2843C212.157 19.2843 212.458 19.2147 212.708 19.0755C212.961 18.9363 213.153 18.7544 213.284 18.53C213.417 18.3027 213.484 18.0598 213.484 17.8013V16.9576C213.438 17.003 213.35 17.0456 213.22 17.0854C213.092 17.1223 212.946 17.155 212.781 17.1834C212.616 17.209 212.456 17.2331 212.299 17.2559C212.143 17.2757 212.012 17.2928 211.907 17.307C211.66 17.3382 211.434 17.3908 211.23 17.4647C211.028 17.5385 210.866 17.6451 210.744 17.7843C210.625 17.9206 210.565 18.1025 210.565 18.3297C210.565 18.6451 210.681 18.8837 210.914 19.0456C211.147 19.2047 211.444 19.2843 211.805 19.2843ZM216.455 20.1621V13.6167H217.687V14.6564H217.755C217.874 14.3042 218.084 14.0272 218.386 13.8255C218.69 13.6209 219.033 13.5186 219.417 13.5186C219.496 13.5186 219.59 13.5215 219.698 13.5272C219.809 13.5328 219.896 13.5399 219.958 13.5485V14.7672C219.907 14.753 219.816 14.7374 219.685 14.7203C219.555 14.7005 219.424 14.6905 219.293 14.6905C218.992 14.6905 218.724 14.7544 218.488 14.8823C218.255 15.0073 218.07 15.182 217.934 15.4064C217.797 15.628 217.729 15.8809 217.729 16.165V20.1621H216.455Z" fill="#222222"></path><g clip-path="url(#clip1_9668_25600)"><path d="M230.746 12.6494L233.463 15.2854M233.463 15.2854L230.746 17.9213M233.463 15.2854H226.374" stroke="#DE4C27" stroke-width="0.753125" stroke-linecap="round" stroke-linejoin="round"></path></g><defs><linearGradient id="paint0_linear_9668_25600" x1="219" y1="-48.5" x2="-43" y2="38.5" gradientUnits="userSpaceOnUse"><stop offset="0.7" stop-color="#DE4C27" stop-opacity="0.02"></stop><stop offset="1" stop-color="#DE4C27" stop-opacity="0.25"></stop></linearGradient><linearGradient id="paint1_linear_9668_25600" x1="0.437744" y1="15.6621" x2="245.203" y2="15.6621" gradientUnits="userSpaceOnUse"><stop stop-color="#DE4C27"></stop><stop offset="1" stop-color="#DEDEDE"></stop></linearGradient><clipPath id="clip0_9668_25600"><rect width="18.075" height="18.075" fill="white" transform="translate(9.47522 6.625)"></rect></clipPath><clipPath id="clip1_9668_25600"><rect width="12.05" height="12.05" fill="white" transform="translate(224.116 9.6377)"></rect></clipPath></defs></svg>