<svg xmlns="http://www.w3.org/2000/svg" width="33" height="33" viewBox="0 0 33 33" fill="none"><path d="M23.0866 4.47852C24.8746 4.47852 26.5946 5.18518 27.86 6.45318C29.1266 7.71852 29.8346 9.42518 29.8346 11.2118V21.7452C29.8346 25.4652 26.808 28.4785 23.0866 28.4785H9.91463C6.1933 28.4785 3.16797 25.4652 3.16797 21.7452V11.2118C3.16797 7.49185 6.17997 4.47852 9.91463 4.47852H23.0866ZM24.5946 11.4118C24.3146 11.3972 24.048 11.4918 23.8466 11.6785L17.8346 16.4785C17.0613 17.1198 15.9533 17.1198 15.168 16.4785L9.16797 11.6785C8.7533 11.3718 8.17997 11.4118 7.83464 11.7718C7.47464 12.1318 7.43464 12.7052 7.73997 13.1052L7.91464 13.2785L13.9813 18.0118C14.728 18.5985 15.6333 18.9185 16.5813 18.9185C17.5266 18.9185 18.448 18.5985 19.1933 18.0118L25.208 13.1985L25.3146 13.0918C25.6333 12.7052 25.6333 12.1452 25.3 11.7585C25.1146 11.5598 24.86 11.4385 24.5946 11.4118Z" fill="#898989"></path></svg>