<svg xmlns="http://www.w3.org/2000/svg" width="302" height="46" viewBox="0 0 302 46" fill="none"><circle cx="22.5938" cy="22.5938" r="21.8406" transform="matrix(-1 0 0 1 45.2969 0)" stroke="white" stroke-width="1.50625"></circle><path d="M24.9867 22.5938C24.9867 34.6447 34.9168 44.4344 47.1917 44.4344C59.4666 44.4344 69.3968 34.6447 69.3968 22.5938C69.3968 10.5428 59.4666 0.753125 47.1917 0.753125C34.9168 0.753125 24.9867 10.5428 24.9867 22.5938Z" stroke="white" stroke-width="1.50625"></path><path d="M49.8402 22.5938C49.8402 34.6447 59.7703 44.4344 72.0453 44.4344C84.3202 44.4344 94.2503 34.6447 94.2503 22.5938C94.2503 10.5428 84.3202 0.753125 72.0453 0.753125C59.7703 0.753125 49.8402 10.5428 49.8402 22.5938Z" stroke="white" stroke-width="1.50625"></path><path d="M74.6329 22.5938C74.6329 34.6674 84.262 44.4344 96.1149 44.4344C107.968 44.4344 117.597 34.6674 117.597 22.5938C117.597 10.5201 107.968 0.753125 96.1149 0.753125C84.262 0.753125 74.6329 10.5201 74.6329 22.5938Z" stroke="white" stroke-width="1.50625"></path><path d="M97.9799 22.5938C97.9799 34.6674 107.609 44.4344 119.462 44.4344C131.315 44.4344 140.944 34.6674 140.944 22.5938C140.944 10.5201 131.315 0.753125 119.462 0.753125C107.609 0.753125 97.9799 10.5201 97.9799 22.5938Z" fill="#FFD6C5" stroke="white" stroke-width="1.50625"></path><path d="M113.542 28.7841V26.7643H109.584V25.1511L114.125 19.3219H115.359V25.1375H116.552V26.7643H115.359V28.7841H113.542ZM111.401 25.1375H113.746V22.0738L111.401 25.1375ZM124.717 23.0905C124.717 23.8858 124.563 24.5953 124.256 25.2188C123.958 25.8334 123.542 26.3169 123.009 26.6694C122.484 27.0218 121.888 27.1981 121.219 27.1981C120.55 27.1981 119.949 27.0218 119.416 26.6694C118.892 26.3169 118.476 25.8334 118.169 25.2188C117.871 24.5953 117.722 23.8858 117.722 23.0905C117.722 22.2952 117.871 21.5903 118.169 20.9757C118.476 20.3522 118.892 19.8641 119.416 19.5117C119.949 19.1502 120.55 18.9694 121.219 18.9694C121.888 18.9694 122.484 19.1502 123.009 19.5117C123.542 19.8641 123.958 20.3522 124.256 20.9757C124.563 21.5903 124.717 22.2952 124.717 23.0905ZM122.887 23.0905C122.887 22.6025 122.814 22.1777 122.67 21.8162C122.534 21.4457 122.34 21.1565 122.087 20.9486C121.834 20.7408 121.545 20.6368 121.219 20.6368C120.885 20.6368 120.591 20.7408 120.338 20.9486C120.085 21.1565 119.886 21.4457 119.742 21.8162C119.606 22.1777 119.538 22.6025 119.538 23.0905C119.538 23.5785 119.606 24.0033 119.742 24.3648C119.886 24.7263 120.085 25.011 120.338 25.2188C120.591 25.4267 120.885 25.5306 121.219 25.5306C121.545 25.5306 121.829 25.4267 122.073 25.2188C122.326 25.011 122.525 24.7263 122.67 24.3648C122.814 23.9943 122.887 23.5695 122.887 23.0905ZM130.454 21.518V22.9821H129.058V24.5139H127.418V22.9821H126.022V21.518H127.418V19.9861H129.058V21.518H130.454Z" fill="#222222"></path><path d="M156.76 19.8836C156.659 19.7731 156.514 19.6576 156.323 19.5371C156.132 19.4066 155.906 19.2861 155.645 19.1756C155.384 19.0652 155.103 18.9748 154.802 18.9045C154.5 18.8342 154.189 18.7991 153.868 18.7991C153.165 18.7991 152.643 18.9296 152.301 19.1907C151.96 19.4518 151.789 19.8133 151.789 20.2752C151.789 20.6166 151.885 20.8877 152.075 21.0886C152.266 21.2794 152.557 21.44 152.949 21.5706C153.341 21.7011 153.833 21.8417 154.425 21.9923C155.148 22.163 155.776 22.3689 156.308 22.6099C156.84 22.8408 157.247 23.1521 157.528 23.5438C157.809 23.9354 157.95 24.4525 157.95 25.0952C157.95 25.6374 157.849 26.1044 157.648 26.496C157.448 26.8876 157.166 27.209 156.805 27.46C156.443 27.701 156.027 27.8818 155.555 28.0023C155.083 28.1127 154.576 28.1679 154.033 28.1679C153.501 28.1679 152.969 28.1127 152.437 28.0023C151.915 27.8918 151.413 27.7311 150.931 27.5203C150.459 27.2993 150.022 27.0332 149.62 26.7219L150.388 25.2759C150.519 25.4065 150.705 25.5521 150.946 25.7128C151.197 25.8634 151.483 26.009 151.804 26.1496C152.136 26.2901 152.492 26.4106 152.874 26.5111C153.265 26.6014 153.662 26.6466 154.064 26.6466C154.736 26.6466 155.248 26.5311 155.6 26.3002C155.961 26.0592 156.142 25.7178 156.142 25.2759C156.142 24.9144 156.027 24.6282 155.796 24.4174C155.565 24.1965 155.228 24.0107 154.787 23.8601C154.345 23.7094 153.818 23.5588 153.205 23.4082C152.502 23.2174 151.915 23.0115 151.443 22.7906C150.971 22.5597 150.614 22.2685 150.373 21.917C150.142 21.5555 150.027 21.0986 150.027 20.5463C150.027 19.8434 150.198 19.2509 150.539 18.7689C150.88 18.2769 151.342 17.9104 151.925 17.6694C152.517 17.4183 153.18 17.2928 153.913 17.2928C154.395 17.2928 154.852 17.348 155.284 17.4585C155.715 17.5589 156.117 17.6995 156.489 17.8802C156.87 18.061 157.217 18.2669 157.528 18.4978L156.76 19.8836ZM159.341 25.0048V20.1848H160.998V24.6734C160.998 25.3764 161.123 25.9086 161.374 26.2701C161.635 26.6215 162.012 26.7972 162.504 26.7972C162.815 26.7972 163.116 26.732 163.408 26.6014C163.709 26.4709 163.98 26.2801 164.221 26.0291C164.472 25.768 164.673 25.4567 164.823 25.0952V20.1848H166.48V26.1948C166.48 26.3855 166.516 26.5211 166.586 26.6014C166.656 26.6818 166.772 26.727 166.932 26.737V28.0625C166.762 28.0926 166.621 28.1127 166.51 28.1227C166.4 28.1328 166.295 28.1378 166.194 28.1378C165.893 28.1378 165.642 28.0575 165.441 27.8968C165.24 27.7261 165.125 27.5102 165.095 27.2491L165.064 26.4659C164.713 27.0383 164.256 27.4751 163.694 27.7763C163.131 28.0675 162.514 28.2131 161.841 28.2131C161.018 28.2131 160.395 27.942 159.973 27.3997C159.552 26.8575 159.341 26.0592 159.341 25.0048ZM172.842 28.2131C172.24 28.2131 171.693 28.0725 171.201 27.7914C170.719 27.5002 170.337 27.1136 170.056 26.6316V28.0625H168.595V17.0669H170.252V21.676C170.563 21.1739 170.95 20.7773 171.411 20.4861C171.883 20.1949 172.436 20.0493 173.068 20.0493C173.59 20.0493 174.067 20.1597 174.499 20.3806C174.931 20.6015 175.298 20.9028 175.599 21.2844C175.91 21.666 176.146 22.1028 176.307 22.5948C176.477 23.0869 176.563 23.609 176.563 24.1613C176.563 24.7136 176.467 25.2358 176.277 25.7278C176.096 26.2199 175.835 26.6516 175.493 27.0232C175.152 27.3947 174.755 27.6859 174.303 27.8968C173.862 28.1077 173.375 28.2131 172.842 28.2131ZM172.406 26.7972C172.767 26.7972 173.098 26.727 173.4 26.5864C173.701 26.4358 173.962 26.2399 174.183 25.9989C174.404 25.7579 174.57 25.4768 174.68 25.1554C174.801 24.8341 174.861 24.5027 174.861 24.1613C174.861 23.6894 174.76 23.2475 174.56 22.8358C174.369 22.4241 174.098 22.0927 173.746 21.8417C173.395 21.5906 172.988 21.4651 172.526 21.4651C172.195 21.4651 171.883 21.5455 171.592 21.7061C171.301 21.8568 171.04 22.0626 170.809 22.3237C170.588 22.5747 170.402 22.8559 170.252 23.1672V25.2458C170.312 25.4768 170.417 25.6876 170.568 25.8784C170.719 26.0592 170.894 26.2199 171.095 26.3604C171.296 26.491 171.512 26.5964 171.743 26.6767C171.974 26.7571 172.195 26.7972 172.406 26.7972ZM180.855 28.2131C180.192 28.2131 179.564 28.1077 178.972 27.8968C178.379 27.6759 177.872 27.3495 177.45 26.9177L178.068 25.8031C178.52 26.2048 178.972 26.496 179.424 26.6767C179.886 26.8575 180.342 26.9479 180.794 26.9479C181.256 26.9479 181.633 26.8625 181.924 26.6918C182.215 26.5111 182.361 26.25 182.361 25.9086C182.361 25.6575 182.286 25.4718 182.135 25.3513C181.984 25.2308 181.763 25.1253 181.472 25.0349C181.191 24.9446 180.85 24.8441 180.448 24.7337C179.886 24.563 179.414 24.3873 179.032 24.2065C178.65 24.0157 178.364 23.7848 178.173 23.5136C177.983 23.2425 177.887 22.8961 177.887 22.4743C177.887 21.9622 178.018 21.5254 178.279 21.1639C178.54 20.8024 178.901 20.5262 179.363 20.3354C179.835 20.1446 180.378 20.0493 180.99 20.0493C181.563 20.0493 182.09 20.1396 182.572 20.3204C183.064 20.4911 183.496 20.7622 183.867 21.1338L183.159 22.2333C182.808 21.912 182.446 21.676 182.075 21.5254C181.713 21.3748 181.322 21.2994 180.9 21.2994C180.659 21.2994 180.428 21.3296 180.207 21.3898C179.986 21.44 179.8 21.5404 179.65 21.6911C179.509 21.8316 179.439 22.0325 179.439 22.2936C179.439 22.5044 179.499 22.6751 179.619 22.8057C179.74 22.9362 179.921 23.0467 180.162 23.1371C180.403 23.2274 180.699 23.3279 181.05 23.4383C181.663 23.6191 182.185 23.7998 182.617 23.9806C183.049 24.1513 183.38 24.3772 183.611 24.6584C183.852 24.9295 183.973 25.3061 183.973 25.7881C183.973 26.5512 183.686 27.1487 183.114 27.5805C182.552 28.0023 181.799 28.2131 180.855 28.2131ZM189.022 28.2131C188.409 28.2131 187.852 28.1077 187.35 27.8968C186.858 27.6759 186.431 27.3746 186.069 26.9931C185.708 26.6115 185.427 26.1747 185.226 25.6826C185.035 25.1906 184.94 24.6684 184.94 24.1161C184.94 23.373 185.105 22.6952 185.437 22.0827C185.778 21.4701 186.25 20.9781 186.853 20.6066C187.465 20.235 188.188 20.0493 189.022 20.0493C189.825 20.0493 190.523 20.23 191.115 20.5915C191.718 20.943 192.16 21.4149 192.441 22.0074L190.829 22.5195C190.648 22.1881 190.392 21.9321 190.061 21.7513C189.74 21.5605 189.383 21.4651 188.992 21.4651C188.55 21.4651 188.148 21.5806 187.787 21.8116C187.435 22.0325 187.154 22.3438 186.943 22.7454C186.742 23.1371 186.642 23.594 186.642 24.1161C186.642 24.6182 186.747 25.0751 186.958 25.4868C187.169 25.8885 187.45 26.2098 187.802 26.4508C188.163 26.6818 188.565 26.7972 189.007 26.7972C189.278 26.7972 189.539 26.7521 189.79 26.6617C190.051 26.5613 190.277 26.4307 190.468 26.2701C190.658 26.0994 190.794 25.9136 190.874 25.7128L192.501 26.1948C192.33 26.5864 192.074 26.9328 191.733 27.2341C191.402 27.5353 191.005 27.7763 190.543 27.9571C190.091 28.1278 189.584 28.2131 189.022 28.2131ZM198.294 21.6157C197.651 21.6258 197.079 21.7714 196.577 22.0526C196.085 22.3337 195.733 22.7304 195.523 23.2425V28.0625H193.866V20.1848H195.402V21.9471C195.673 21.4049 196.03 20.9731 196.471 20.6518C196.913 20.3204 197.38 20.1396 197.872 20.1095C197.973 20.1095 198.053 20.1095 198.113 20.1095C198.184 20.1095 198.244 20.1145 198.294 20.1246V21.6157ZM199.499 28.0625V20.1848H201.156V28.0625H199.499ZM199.499 18.8894V17.0669H201.156V18.8894H199.499ZM207.395 28.2131C206.792 28.2131 206.245 28.0725 205.753 27.7914C205.271 27.5002 204.89 27.1136 204.608 26.6316V28.0625H203.147V17.0669H204.804V21.676C205.115 21.1739 205.502 20.7773 205.964 20.4861C206.436 20.1949 206.988 20.0493 207.621 20.0493C208.143 20.0493 208.62 20.1597 209.052 20.3806C209.484 20.6015 209.85 20.9028 210.151 21.2844C210.463 21.666 210.699 22.1028 210.859 22.5948C211.03 23.0869 211.115 23.609 211.115 24.1613C211.115 24.7136 211.02 25.2358 210.829 25.7278C210.648 26.2199 210.387 26.6516 210.046 27.0232C209.705 27.3947 209.308 27.6859 208.856 27.8968C208.414 28.1077 207.927 28.2131 207.395 28.2131ZM206.958 26.7972C207.32 26.7972 207.651 26.727 207.952 26.5864C208.254 26.4358 208.515 26.2399 208.736 25.9989C208.956 25.7579 209.122 25.4768 209.233 25.1554C209.353 24.8341 209.413 24.5027 209.413 24.1613C209.413 23.6894 209.313 23.2475 209.112 22.8358C208.921 22.4241 208.65 22.0927 208.299 21.8417C207.947 21.5906 207.541 21.4651 207.079 21.4651C206.747 21.4651 206.436 21.5455 206.145 21.7061C205.854 21.8568 205.592 22.0626 205.362 22.3237C205.141 22.5747 204.955 22.8559 204.804 23.1672V25.2458C204.864 25.4768 204.97 25.6876 205.121 25.8784C205.271 26.0592 205.447 26.2199 205.648 26.3604C205.849 26.491 206.064 26.5964 206.295 26.6767C206.526 26.7571 206.747 26.7972 206.958 26.7972ZM216.175 28.2131C215.563 28.2131 215.005 28.1077 214.503 27.8968C214.011 27.6759 213.585 27.3797 213.223 27.0081C212.862 26.6265 212.58 26.1948 212.38 25.7128C212.189 25.2207 212.093 24.6985 212.093 24.1462C212.093 23.4032 212.264 22.7254 212.606 22.1128C212.947 21.4902 213.424 20.9932 214.036 20.6216C214.649 20.24 215.367 20.0493 216.19 20.0493C217.014 20.0493 217.722 20.24 218.314 20.6216C218.917 20.9932 219.384 21.4852 219.715 22.0977C220.046 22.7103 220.212 23.368 220.212 24.0709C220.212 24.1914 220.207 24.3069 220.197 24.4174C220.187 24.5178 220.177 24.6031 220.167 24.6734H213.856C213.886 25.1354 214.011 25.542 214.232 25.8935C214.463 26.2349 214.754 26.506 215.106 26.7069C215.457 26.8977 215.834 26.9931 216.236 26.9931C216.677 26.9931 217.094 26.8826 217.486 26.6617C217.887 26.4408 218.159 26.1496 218.299 25.7881L219.715 26.1948C219.544 26.5763 219.283 26.9228 218.932 27.2341C218.59 27.5353 218.184 27.7763 217.712 27.9571C217.24 28.1278 216.728 28.2131 216.175 28.2131ZM213.811 23.5739H218.57C218.54 23.122 218.41 22.7254 218.179 22.3839C217.958 22.0325 217.672 21.7614 217.32 21.5706C216.979 21.3697 216.597 21.2693 216.175 21.2693C215.764 21.2693 215.382 21.3697 215.031 21.5706C214.689 21.7614 214.408 22.0325 214.187 22.3839C213.966 22.7254 213.841 23.122 213.811 23.5739ZM225.992 21.6157C225.349 21.6258 224.777 21.7714 224.275 22.0526C223.783 22.3337 223.431 22.7304 223.22 23.2425V28.0625H221.564V20.1848H223.1V21.9471C223.371 21.4049 223.728 20.9731 224.169 20.6518C224.611 20.3204 225.078 20.1396 225.57 20.1095C225.671 20.1095 225.751 20.1095 225.811 20.1095C225.881 20.1095 225.942 20.1145 225.992 20.1246V21.6157ZM229.999 28.2131C229.336 28.2131 228.709 28.1077 228.116 27.8968C227.524 27.6759 227.017 27.3495 226.595 26.9177L227.212 25.8031C227.664 26.2048 228.116 26.496 228.568 26.6767C229.03 26.8575 229.487 26.9479 229.939 26.9479C230.401 26.9479 230.777 26.8625 231.068 26.6918C231.36 26.5111 231.505 26.25 231.505 25.9086C231.505 25.6575 231.43 25.4718 231.279 25.3513C231.129 25.2308 230.908 25.1253 230.616 25.0349C230.335 24.9446 229.994 24.8441 229.592 24.7337C229.03 24.563 228.558 24.3873 228.176 24.2065C227.795 24.0157 227.509 23.7848 227.318 23.5136C227.127 23.2425 227.032 22.8961 227.032 22.4743C227.032 21.9622 227.162 21.5254 227.423 21.1639C227.684 20.8024 228.046 20.5262 228.508 20.3354C228.98 20.1446 229.522 20.0493 230.134 20.0493C230.707 20.0493 231.234 20.1396 231.716 20.3204C232.208 20.4911 232.64 20.7622 233.011 21.1338L232.303 22.2333C231.952 21.912 231.591 21.676 231.219 21.5254C230.857 21.3748 230.466 21.2994 230.044 21.2994C229.803 21.2994 229.572 21.3296 229.351 21.3898C229.13 21.44 228.945 21.5404 228.794 21.6911C228.653 21.8316 228.583 22.0325 228.583 22.2936C228.583 22.5044 228.643 22.6751 228.764 22.8057C228.884 22.9362 229.065 23.0467 229.306 23.1371C229.547 23.2274 229.843 23.3279 230.195 23.4383C230.807 23.6191 231.329 23.7998 231.761 23.9806C232.193 24.1513 232.524 24.3772 232.755 24.6584C232.996 24.9295 233.117 25.3061 233.117 25.7881C233.117 26.5512 232.831 27.1487 232.258 27.5805C231.696 28.0023 230.943 28.2131 229.999 28.2131ZM249.585 26.5713V28.0625H242.25V17.3681H249.45V18.8593H243.937V21.9019H248.712V23.3028H243.937V26.5713H249.585ZM258.12 28.0625H256.464V23.6492C256.464 22.9161 256.343 22.3789 256.102 22.0375C255.871 21.6961 255.525 21.5254 255.063 21.5254C254.741 21.5254 254.42 21.6057 254.099 21.7664C253.787 21.927 253.506 22.148 253.255 22.4291C253.004 22.7003 252.823 23.0166 252.713 23.3781V28.0625H251.056V20.1848H252.562V21.7664C252.763 21.4149 253.024 21.1137 253.346 20.8626C253.677 20.6015 254.048 20.4007 254.46 20.2601C254.872 20.1195 255.309 20.0493 255.771 20.0493C256.243 20.0493 256.629 20.1346 256.93 20.3053C257.242 20.476 257.483 20.712 257.653 21.0133C257.834 21.3045 257.955 21.6459 258.015 22.0375C258.085 22.4191 258.12 22.8258 258.12 23.2576V28.0625ZM264.472 21.6157C263.829 21.6258 263.257 21.7714 262.755 22.0526C262.263 22.3337 261.911 22.7304 261.7 23.2425V28.0625H260.044V20.1848H261.58V21.9471C261.851 21.4049 262.208 20.9731 262.649 20.6518C263.091 20.3204 263.558 20.1396 264.05 20.1095C264.151 20.1095 264.231 20.1095 264.291 20.1095C264.361 20.1095 264.422 20.1145 264.472 20.1246V21.6157ZM269.07 28.2131C268.447 28.2131 267.89 28.1077 267.398 27.8968C266.906 27.6759 266.479 27.3746 266.118 26.9931C265.766 26.6115 265.495 26.1797 265.304 25.6977C265.113 25.2056 265.018 24.6835 265.018 24.1312C265.018 23.5789 265.113 23.0567 265.304 22.5647C265.495 22.0726 265.766 21.6409 266.118 21.2693C266.479 20.8877 266.906 20.5915 267.398 20.3806C267.9 20.1597 268.457 20.0493 269.07 20.0493C269.682 20.0493 270.235 20.1597 270.727 20.3806C271.229 20.5915 271.656 20.8877 272.007 21.2693C272.369 21.6409 272.645 22.0726 272.836 22.5647C273.026 23.0567 273.122 23.5789 273.122 24.1312C273.122 24.6835 273.026 25.2056 272.836 25.6977C272.645 26.1797 272.369 26.6115 272.007 26.9931C271.656 27.3746 271.229 27.6759 270.727 27.8968C270.235 28.1077 269.682 28.2131 269.07 28.2131ZM266.72 24.1462C266.72 24.6483 266.826 25.1002 267.036 25.5019C267.247 25.9035 267.528 26.2199 267.88 26.4508C268.231 26.6818 268.628 26.7972 269.07 26.7972C269.502 26.7972 269.893 26.6818 270.245 26.4508C270.606 26.2098 270.892 25.8885 271.103 25.4868C271.314 25.0751 271.42 24.6232 271.42 24.1312C271.42 23.6291 271.314 23.1772 271.103 22.7756C270.892 22.3739 270.606 22.0576 270.245 21.8266C269.893 21.5856 269.502 21.4651 269.07 21.4651C268.628 21.4651 268.231 21.5856 267.88 21.8266C267.528 22.0676 267.247 22.389 267.036 22.7906C266.826 23.1822 266.72 23.6341 266.72 24.1462ZM274.606 17.0669H276.263V25.7881C276.263 26.1897 276.323 26.4458 276.444 26.5563C276.564 26.6667 276.715 26.7219 276.896 26.7219C277.097 26.7219 277.282 26.7019 277.453 26.6617C277.634 26.6215 277.789 26.5713 277.92 26.5111L278.161 27.8215C277.92 27.9219 277.634 28.0073 277.302 28.0776C276.971 28.1479 276.675 28.183 276.414 28.183C275.851 28.183 275.41 28.0274 275.088 27.7161C274.767 27.3947 274.606 26.9529 274.606 26.3906V17.0669ZM279.137 17.0669H280.794V25.7881C280.794 26.1897 280.854 26.4458 280.974 26.5563C281.095 26.6667 281.246 26.7219 281.426 26.7219C281.627 26.7219 281.813 26.7019 281.984 26.6617C282.164 26.6215 282.32 26.5713 282.451 26.5111L282.692 27.8215C282.451 27.9219 282.164 28.0073 281.833 28.0776C281.502 28.1479 281.205 28.183 280.944 28.183C280.382 28.183 279.94 28.0274 279.619 27.7161C279.297 27.3947 279.137 26.9529 279.137 26.3906V17.0669ZM287.222 28.2131C286.61 28.2131 286.052 28.1077 285.55 27.8968C285.058 27.6759 284.631 27.3797 284.27 27.0081C283.908 26.6265 283.627 26.1948 283.426 25.7128C283.236 25.2207 283.14 24.6985 283.14 24.1462C283.14 23.4032 283.311 22.7254 283.652 22.1128C283.994 21.4902 284.471 20.9932 285.083 20.6216C285.696 20.24 286.414 20.0493 287.237 20.0493C288.061 20.0493 288.768 20.24 289.361 20.6216C289.963 20.9932 290.43 21.4852 290.762 22.0977C291.093 22.7103 291.259 23.368 291.259 24.0709C291.259 24.1914 291.254 24.3069 291.244 24.4174C291.234 24.5178 291.224 24.6031 291.214 24.6734H284.902C284.933 25.1354 285.058 25.542 285.279 25.8935C285.51 26.2349 285.801 26.506 286.153 26.7069C286.504 26.8977 286.881 26.9931 287.282 26.9931C287.724 26.9931 288.141 26.8826 288.533 26.6617C288.934 26.4408 289.205 26.1496 289.346 25.7881L290.762 26.1948C290.591 26.5763 290.33 26.9228 289.979 27.2341C289.637 27.5353 289.23 27.7763 288.758 27.9571C288.286 28.1278 287.774 28.2131 287.222 28.2131ZM284.857 23.5739H289.617C289.587 23.122 289.456 22.7254 289.225 22.3839C289.004 22.0325 288.718 21.7614 288.367 21.5706C288.025 21.3697 287.644 21.2693 287.222 21.2693C286.81 21.2693 286.429 21.3697 286.077 21.5706C285.736 21.7614 285.455 22.0325 285.234 22.3839C285.013 22.7254 284.887 23.122 284.857 23.5739ZM292.113 24.1312C292.113 23.3781 292.264 22.6952 292.565 22.0827C292.876 21.4601 293.298 20.9681 293.83 20.6066C294.363 20.235 294.975 20.0493 295.668 20.0493C296.271 20.0493 296.813 20.2049 297.295 20.5162C297.787 20.8275 298.168 21.2141 298.44 21.676V17.0669H300.096V26.1948C300.096 26.3855 300.132 26.5211 300.202 26.6014C300.272 26.6818 300.388 26.727 300.548 26.737V28.0625C300.237 28.1127 299.996 28.1378 299.825 28.1378C299.514 28.1378 299.248 28.0474 299.027 27.8667C298.816 27.6859 298.706 27.47 298.696 27.219L298.681 26.6316C298.379 27.1336 297.973 27.5253 297.46 27.8064C296.948 28.0776 296.416 28.2131 295.864 28.2131C295.322 28.2131 294.819 28.1077 294.358 27.8968C293.906 27.6859 293.509 27.3897 293.168 27.0081C292.836 26.6265 292.575 26.1897 292.384 25.6977C292.204 25.2056 292.113 24.6835 292.113 24.1312ZM298.44 25.2308V23.1672C298.329 22.8459 298.148 22.5597 297.897 22.3086C297.656 22.0475 297.38 21.8417 297.069 21.6911C296.768 21.5404 296.466 21.4651 296.165 21.4651C295.814 21.4651 295.492 21.5404 295.201 21.6911C294.92 21.8417 294.674 22.0425 294.463 22.2936C294.262 22.5446 294.107 22.8308 293.996 23.1521C293.886 23.4735 293.83 23.8099 293.83 24.1613C293.83 24.5228 293.891 24.8642 294.011 25.1856C294.132 25.4969 294.302 25.778 294.523 26.0291C294.754 26.2701 295.015 26.4609 295.307 26.6014C295.608 26.732 295.934 26.7972 296.286 26.7972C296.506 26.7972 296.727 26.7571 296.948 26.6767C297.179 26.5964 297.395 26.486 297.596 26.3454C297.807 26.2048 297.983 26.0391 298.123 25.8483C298.274 25.6575 298.379 25.4517 298.44 25.2308Z" fill="#222222"></path></svg>