<svg xmlns="http://www.w3.org/2000/svg" width="18" height="19" viewBox="0 0 18 19" fill="none"><g clip-path="url(#clip0_9668_25539)"><path fill-rule="evenodd" clip-rule="evenodd" d="M8.49816 16.6788C10.8091 16.1234 13.0345 16.1597 15.3786 16.0931C15.8363 16.0802 16.2169 16.4316 16.2307 16.8777C16.2445 17.3239 15.8832 17.6963 15.4254 17.7095C13.2028 17.7726 11.0877 17.7217 8.89253 18.2488C8.44855 18.3555 7.99906 18.0901 7.89152 17.6568C7.78119 17.2237 8.05419 16.7852 8.49816 16.6788Z" fill="#DE4C27"></path><path fill-rule="evenodd" clip-rule="evenodd" d="M4.01931 11.9598C7.54359 8.19187 12.0772 4.64158 16.6549 2.1601C17.0548 1.94371 17.5594 2.08466 17.7801 2.47488C18.0007 2.8651 17.8573 3.35773 17.4574 3.57412C13.0313 5.97367 8.64661 9.40724 5.2409 13.0508C4.93206 13.3801 4.40808 13.4029 4.07164 13.102C3.7352 12.801 3.71039 12.2892 4.01931 11.9598Z" fill="#DE4C27"></path><path fill-rule="evenodd" clip-rule="evenodd" d="M0.168502 11.0051C-0.41341 7.55893 0.579354 4.00677 1.98297 0.873135C2.16779 0.464318 2.65586 0.277824 3.07231 0.456497C3.49148 0.635439 3.68174 1.11271 3.49972 1.52153C2.2202 4.37544 1.27152 7.60312 1.80103 10.7419C1.87544 11.1823 1.56932 11.5986 1.11982 11.6711C0.670326 11.7439 0.242912 11.4452 0.168502 11.0051Z" fill="#DE4C27"></path></g><defs><clipPath id="clip0_9668_25539"><rect width="17.8834" height="18.661" fill="white" transform="matrix(-1 0 0 1 17.8834 0)"></rect></clipPath></defs></svg>