<svg xmlns="http://www.w3.org/2000/svg" width="18" height="19" viewBox="0 0 18 19" fill="none"><g clip-path="url(#clip0_9668_25543)"><path fill-rule="evenodd" clip-rule="evenodd" d="M9.38526 16.6788C7.07431 16.1234 4.84889 16.1597 2.50487 16.0931C2.04709 16.0802 1.66651 16.4316 1.65273 16.8777C1.63894 17.3239 2.0002 17.6963 2.45798 17.7095C4.68066 17.7726 6.79577 17.7217 8.99089 18.2488C9.43487 18.3555 9.88436 18.0901 9.9919 17.6568C10.1022 17.2237 9.82924 16.7852 9.38526 16.6788Z" fill="#DE4C27"></path><path fill-rule="evenodd" clip-rule="evenodd" d="M13.8641 11.9608C10.3398 8.19284 5.80625 4.64255 1.22852 2.16108C0.828659 1.94468 0.323981 2.08563 0.103368 2.47586C-0.117246 2.86608 0.0261654 3.3587 0.426026 3.5751C4.85208 5.97464 9.23681 9.40822 12.6425 13.0518C12.9514 13.3811 13.4753 13.4039 13.8118 13.1029C14.1482 12.802 14.173 12.2902 13.8641 11.9608Z" fill="#DE4C27"></path><path fill-rule="evenodd" clip-rule="evenodd" d="M17.7148 11.0061C18.2967 7.55991 17.3039 4.00775 15.9003 0.874111C15.7155 0.465294 15.2274 0.278801 14.811 0.457474C14.3918 0.636415 14.2016 1.11369 14.3836 1.52251C15.6631 4.37642 16.6118 7.6041 16.0823 10.7428C16.0079 11.1832 16.314 11.5996 16.7635 11.6721C17.213 11.7449 17.6404 11.4462 17.7148 11.0061Z" fill="#DE4C27"></path></g><defs><clipPath id="clip0_9668_25543"><rect width="17.8834" height="18.661" fill="white"></rect></clipPath></defs></svg>